<?xml version="1.0" encoding="UTF-8" standalone="no"?>
<!DOCTYPE svg PUBLIC "-//W3C//DTD SVG 1.1//EN"
 "http://www.w3.org/Graphics/SVG/1.1/DTD/svg11.dtd">
<!-- Generated by graphviz version 2.40.1 (20161225.0304)
 -->
<!-- Title: dependency&#45;cruiser output Pages: 1 -->
<svg width="380pt" height="233pt"
 viewBox="0.00 0.00 379.50 233.11" xmlns="http://www.w3.org/2000/svg" xmlns:xlink="http://www.w3.org/1999/xlink">
<g id="graph0" class="graph" transform="scale(1 1) rotate(0) translate(4 229.1093)">
<title>dependency&#45;cruiser output</title>
<polygon fill="#ffffff" stroke="transparent" points="-4,4 -4,-229.1093 375.5,-229.1093 375.5,4 -4,4"/>
<g id="clust1" class="cluster">
<title>cluster_src</title>
<path fill="#ffffff" stroke="#000000" stroke-width="2" d="M20,-61.1093C20,-61.1093 297.5,-61.1093 297.5,-61.1093 303.5,-61.1093 309.5,-67.1093 309.5,-73.1093 309.5,-73.1093 309.5,-205.1093 309.5,-205.1093 309.5,-211.1093 303.5,-217.1093 297.5,-217.1093 297.5,-217.1093 20,-217.1093 20,-217.1093 14,-217.1093 8,-211.1093 8,-205.1093 8,-205.1093 8,-73.1093 8,-73.1093 8,-67.1093 14,-61.1093 20,-61.1093"/>
<text text-anchor="middle" x="158.75" y="-205.9093" font-family="Helvetica,sans-Serif" font-weight="bold" font-size="9.00" fill="#000000">src</text>
</g>
<g id="clust2" class="cluster">
<title>cluster_src/controlers</title>
<path fill="#ffffff" stroke="#000000" stroke-width="2" d="M168,-79.1093C168,-79.1093 214,-79.1093 214,-79.1093 220,-79.1093 226,-85.1093 226,-91.1093 226,-91.1093 226,-119.1093 226,-119.1093 226,-125.1093 220,-131.1093 214,-131.1093 214,-131.1093 168,-131.1093 168,-131.1093 162,-131.1093 156,-125.1093 156,-119.1093 156,-119.1093 156,-91.1093 156,-91.1093 156,-85.1093 162,-79.1093 168,-79.1093"/>
<text text-anchor="middle" x="191" y="-119.9093" font-family="Helvetica,sans-Serif" font-weight="bold" font-size="9.00" fill="#000000">controlers</text>
</g>
<g id="clust3" class="cluster">
<title>cluster_src/models</title>
<path fill="#ffffff" stroke="#000000" stroke-width="2" d="M168,-139.1093C168,-139.1093 289.5,-139.1093 289.5,-139.1093 295.5,-139.1093 301.5,-145.1093 301.5,-151.1093 301.5,-151.1093 301.5,-179.1093 301.5,-179.1093 301.5,-185.1093 295.5,-191.1093 289.5,-191.1093 289.5,-191.1093 168,-191.1093 168,-191.1093 162,-191.1093 156,-185.1093 156,-179.1093 156,-179.1093 156,-151.1093 156,-151.1093 156,-145.1093 162,-139.1093 168,-139.1093"/>
<text text-anchor="middle" x="228.75" y="-179.9093" font-family="Helvetica,sans-Serif" font-weight="bold" font-size="9.00" fill="#000000">models</text>
</g>
<g id="clust4" class="cluster">
<title>cluster_src/routes</title>
<path fill="#ffffff" stroke="#000000" stroke-width="2" d="M90,-79.1093C90,-79.1093 136,-79.1093 136,-79.1093 142,-79.1093 148,-85.1093 148,-91.1093 148,-91.1093 148,-149.1093 148,-149.1093 148,-155.1093 142,-161.1093 136,-161.1093 136,-161.1093 90,-161.1093 90,-161.1093 84,-161.1093 78,-155.1093 78,-149.1093 78,-149.1093 78,-91.1093 78,-91.1093 78,-85.1093 84,-79.1093 90,-79.1093"/>
<text text-anchor="middle" x="113" y="-149.9093" font-family="Helvetica,sans-Serif" font-weight="bold" font-size="9.00" fill="#000000">routes</text>
</g>
<!-- crypto -->
<g id="node1" class="node">
<title>crypto</title>
<path fill="#ffffcc" stroke="#c0c0c0" d="M287.5,-53.1093C287.5,-53.1093 245.5,-53.1093 245.5,-53.1093 242.5,-53.1093 239.5,-50.1093 239.5,-47.1093 239.5,-47.1093 239.5,-41.1093 239.5,-41.1093 239.5,-38.1093 242.5,-35.1093 245.5,-35.1093 245.5,-35.1093 287.5,-35.1093 287.5,-35.1093 290.5,-35.1093 293.5,-38.1093 293.5,-41.1093 293.5,-41.1093 293.5,-47.1093 293.5,-47.1093 293.5,-50.1093 290.5,-53.1093 287.5,-53.1093"/>
<text text-anchor="middle" x="266.5" y="-41.9093" font-family="Helvetica,sans-Serif" font-size="9.00" fill="#c0c0c0">crypto</text>
</g>
<!-- fs -->
<g id="node2" class="node">
<title>fs</title>
<path fill="#ffffcc" stroke="#c0c0c0" d="M134,-53.1093C134,-53.1093 92,-53.1093 92,-53.1093 89,-53.1093 86,-50.1093 86,-47.1093 86,-47.1093 86,-41.1093 86,-41.1093 86,-38.1093 89,-35.1093 92,-35.1093 92,-35.1093 134,-35.1093 134,-35.1093 137,-35.1093 140,-38.1093 140,-41.1093 140,-41.1093 140,-47.1093 140,-47.1093 140,-50.1093 137,-53.1093 134,-53.1093"/>
<text text-anchor="middle" x="113" y="-41.9093" font-family="Helvetica,sans-Serif" font-size="9.00" fill="#c0c0c0">fs</text>
</g>
<!-- path -->
<g id="node3" class="node">
<title>path</title>
<path fill="#ffffcc" stroke="#c0c0c0" d="M365.5,-56.1093C365.5,-56.1093 323.5,-56.1093 323.5,-56.1093 320.5,-56.1093 317.5,-53.1093 317.5,-50.1093 317.5,-50.1093 317.5,-44.1093 317.5,-44.1093 317.5,-41.1093 320.5,-38.1093 323.5,-38.1093 323.5,-38.1093 365.5,-38.1093 365.5,-38.1093 368.5,-38.1093 371.5,-41.1093 371.5,-44.1093 371.5,-44.1093 371.5,-50.1093 371.5,-50.1093 371.5,-53.1093 368.5,-56.1093 365.5,-56.1093"/>
<text text-anchor="middle" x="344.5" y="-44.9093" font-family="Helvetica,sans-Serif" font-size="9.00" fill="#c0c0c0">path</text>
</g>
<!-- src/constants.ts -->
<g id="node4" class="node">
<title>src/constants.ts</title>
<g id="a_node4"><a xlink:href="../src/constants.ts" xlink:title="constants.ts">
<path fill="#ddfeff" stroke="#000000" d="M293,-96.1093C293,-96.1093 240,-96.1093 240,-96.1093 237,-96.1093 234,-93.1093 234,-90.1093 234,-90.1093 234,-84.1093 234,-84.1093 234,-81.1093 237,-78.1093 240,-78.1093 240,-78.1093 293,-78.1093 293,-78.1093 296,-78.1093 299,-81.1093 299,-84.1093 299,-84.1093 299,-90.1093 299,-90.1093 299,-93.1093 296,-96.1093 293,-96.1093"/>
<text text-anchor="middle" x="266.5" y="-84.9093" font-family="Helvetica,sans-Serif" font-size="9.00" fill="#000000">constants.ts</text>
</a>
</g>
</g>
<!-- src/constants.ts&#45;&gt;path -->
<g id="edge1" class="edge">
<title>src/constants.ts&#45;&gt;path</title>
<path fill="none" stroke="#000000" stroke-dasharray="5,2" stroke-opacity="0.200000" d="M284.1994,-78.0327C295.1695,-72.407 309.383,-65.118 321.2551,-59.0297"/>
<polygon fill="#000000" fill-opacity="0.200000" stroke="#000000" stroke-opacity="0.200000" points="322.49,-60.7565 326.8706,-56.15 320.5734,-57.0193 322.49,-60.7565"/>
</g>
<!-- src/controlers/Todo.ts -->
<g id="node5" class="node">
<title>src/controlers/Todo.ts</title>
<g id="a_node5"><a xlink:href="../src/controlers/Todo.ts" xlink:title="Todo.ts">
<path fill="#ddfeff" stroke="#000000" d="M212,-105.1093C212,-105.1093 170,-105.1093 170,-105.1093 167,-105.1093 164,-102.1093 164,-99.1093 164,-99.1093 164,-93.1093 164,-93.1093 164,-90.1093 167,-87.1093 170,-87.1093 170,-87.1093 212,-87.1093 212,-87.1093 215,-87.1093 218,-90.1093 218,-93.1093 218,-93.1093 218,-99.1093 218,-99.1093 218,-102.1093 215,-105.1093 212,-105.1093"/>
<text text-anchor="middle" x="191" y="-93.9093" font-family="Helvetica,sans-Serif" font-size="9.00" fill="#000000">Todo.ts</text>
</a>
</g>
</g>
<!-- src/controlers/Todo.ts&#45;&gt;crypto -->
<g id="edge4" class="edge">
<title>src/controlers/Todo.ts&#45;&gt;crypto</title>
<path fill="none" stroke="#000000" stroke-dasharray="5,2" stroke-opacity="0.200000" d="M199.55,-87.0549C207.7791,-78.7236 220.8757,-66.4338 234,-58.1093 235.1381,-57.3874 236.3198,-56.6864 237.5293,-56.0081"/>
<polygon fill="#000000" fill-opacity="0.200000" stroke="#000000" stroke-opacity="0.200000" points="238.6062,-57.8151 242.961,-53.1842 236.6688,-54.0887 238.6062,-57.8151"/>
</g>
<!-- src/controlers/Todo.ts&#45;&gt;src/constants.ts -->
<g id="edge2" class="edge">
<title>src/controlers/Todo.ts&#45;&gt;src/constants.ts</title>
<path fill="none" stroke="#000000" stroke-width="2" stroke-opacity="0.200000" d="M218.2572,-92.8601C221.2667,-92.5013 224.3729,-92.1311 227.4905,-91.7594"/>
<polygon fill="#000000" fill-opacity="0.200000" stroke="#000000" stroke-width="2" stroke-opacity="0.200000" points="228.1693,-93.7934 233.8786,-90.9979 227.6721,-89.623 228.1693,-93.7934"/>
</g>
<!-- src/models/Todo.ts -->
<g id="node6" class="node">
<title>src/models/Todo.ts</title>
<g id="a_node6"><a xlink:href="../src/models/Todo.ts" xlink:title="Todo.ts">
<path fill="#ddfeff" stroke="#000000" d="M287.5,-165.1093C287.5,-165.1093 245.5,-165.1093 245.5,-165.1093 242.5,-165.1093 239.5,-162.1093 239.5,-159.1093 239.5,-159.1093 239.5,-153.1093 239.5,-153.1093 239.5,-150.1093 242.5,-147.1093 245.5,-147.1093 245.5,-147.1093 287.5,-147.1093 287.5,-147.1093 290.5,-147.1093 293.5,-150.1093 293.5,-153.1093 293.5,-153.1093 293.5,-159.1093 293.5,-159.1093 293.5,-162.1093 290.5,-165.1093 287.5,-165.1093"/>
<text text-anchor="middle" x="266.5" y="-153.9093" font-family="Helvetica,sans-Serif" font-size="9.00" fill="#000000">Todo.ts</text>
</a>
</g>
</g>
<!-- src/controlers/Todo.ts&#45;&gt;src/models/Todo.ts -->
<g id="edge3" class="edge">
<title>src/controlers/Todo.ts&#45;&gt;src/models/Todo.ts</title>
<path fill="none" stroke="#000000" stroke-width="2" stroke-opacity="0.200000" d="M198.6282,-105.3881C208.6733,-117.434 225.996,-137.5726 234,-143.1093 234.3936,-143.3815 234.7937,-143.6493 235.1996,-143.9127"/>
<polygon fill="#000000" fill-opacity="0.200000" stroke="#000000" stroke-width="2" stroke-opacity="0.200000" points="234.4881,-145.9254 240.7378,-147.0882 236.5772,-142.2819 234.4881,-145.9254"/>
</g>
<!-- src/index.ts -->
<g id="node7" class="node">
<title>src/index.ts</title>
<g id="a_node7"><a xlink:href="../src/index.ts" xlink:title="index.ts">
<path fill="#ddfeff" stroke="#000000" d="M64,-96.1093C64,-96.1093 22,-96.1093 22,-96.1093 19,-96.1093 16,-93.1093 16,-90.1093 16,-90.1093 16,-84.1093 16,-84.1093 16,-81.1093 19,-78.1093 22,-78.1093 22,-78.1093 64,-78.1093 64,-78.1093 67,-78.1093 70,-81.1093 70,-84.1093 70,-84.1093 70,-90.1093 70,-90.1093 70,-93.1093 67,-96.1093 64,-96.1093"/>
<text text-anchor="middle" x="43" y="-84.9093" font-family="Helvetica,sans-Serif" font-size="9.00" fill="#000000">index.ts</text>
</a>
</g>
</g>
<!-- src/index.ts&#45;&gt;fs -->
<g id="edge9" class="edge">
<title>src/index.ts&#45;&gt;fs</title>
<path fill="none" stroke="#000000" stroke-dasharray="5,2" stroke-opacity="0.200000" d="M52.4865,-77.8511C59.1993,-71.6652 68.6386,-63.6727 78,-58.1093 79.3291,-57.3194 80.711,-56.556 82.1246,-55.8211"/>
<polygon fill="#000000" fill-opacity="0.200000" stroke="#000000" stroke-opacity="0.200000" points="83.2016,-57.633 87.6895,-53.1309 81.3736,-53.8517 83.2016,-57.633"/>
</g>
<!-- src/index.ts&#45;&gt;path -->
<g id="edge10" class="edge">
<title>src/index.ts&#45;&gt;path</title>
<path fill="none" stroke="#000000" stroke-dasharray="5,2" stroke-opacity="0.200000" d="M45.4103,-78.0098C49.5338,-64.5076 59.3603,-39.6317 78,-29.1093 167.598,21.4706 209.4994,-4.9017 309.5,-29.1093 314.7506,-30.3803 320.0963,-32.5831 324.9777,-35.0209"/>
<polygon fill="#000000" fill-opacity="0.200000" stroke="#000000" stroke-opacity="0.200000" points="324.1792,-36.9751 330.4611,-37.9489 326.1575,-33.2702 324.1792,-36.9751"/>
</g>
<!-- src/index.ts&#45;&gt;src/constants.ts -->
<g id="edge5" class="edge">
<title>src/index.ts&#45;&gt;src/constants.ts</title>
<path fill="none" stroke="#000000" stroke-width="2" stroke-opacity="0.200000" d="M68.7851,-78.0428C71.8589,-77.2495 74.978,-76.573 78,-76.1093 143.0168,-66.1329 160.7997,-67.4124 226,-76.1093 227.5166,-76.3116 229.057,-76.5547 230.6069,-76.8306"/>
<polygon fill="#000000" fill-opacity="0.200000" stroke="#000000" stroke-width="2" stroke-opacity="0.200000" points="230.3062,-78.9122 236.603,-78.0402 231.1367,-74.7951 230.3062,-78.9122"/>
</g>
<!-- src/models/index.ts -->
<g id="node8" class="node">
<title>src/models/index.ts</title>
<g id="a_node8"><a xlink:href="../src/models/index.ts" xlink:title="index.ts">
<path fill="#ddfeff" stroke="#000000" d="M212,-165.1093C212,-165.1093 170,-165.1093 170,-165.1093 167,-165.1093 164,-162.1093 164,-159.1093 164,-159.1093 164,-153.1093 164,-153.1093 164,-150.1093 167,-147.1093 170,-147.1093 170,-147.1093 212,-147.1093 212,-147.1093 215,-147.1093 218,-150.1093 218,-153.1093 218,-153.1093 218,-159.1093 218,-159.1093 218,-162.1093 215,-165.1093 212,-165.1093"/>
<text text-anchor="middle" x="191" y="-153.9093" font-family="Helvetica,sans-Serif" font-size="9.00" fill="#000000">index.ts</text>
</a>
</g>
</g>
<!-- src/index.ts&#45;&gt;src/models/index.ts -->
<g id="edge6" class="edge">
<title>src/index.ts&#45;&gt;src/models/index.ts</title>
<path fill="none" stroke="#000000" stroke-width="2" stroke-opacity="0.200000" d="M44.0241,-96.2786C46.4602,-113.1649 54.2954,-148.8456 78,-164.1093 102.9998,-180.207 137.8832,-174.5006 162.2567,-167.1295"/>
<polygon fill="#000000" fill-opacity="0.200000" stroke="#000000" stroke-width="2" stroke-opacity="0.200000" points="163.1349,-169.0539 168.2145,-165.2319 161.8602,-165.0519 163.1349,-169.0539"/>
</g>
<!-- src/routes/api.ts -->
<g id="node9" class="node">
<title>src/routes/api.ts</title>
<g id="a_node9"><a xlink:href="../src/routes/api.ts" xlink:title="api.ts">
<path fill="#ddfeff" stroke="#000000" d="M134,-135.1093C134,-135.1093 92,-135.1093 92,-135.1093 89,-135.1093 86,-132.1093 86,-129.1093 86,-129.1093 86,-123.1093 86,-123.1093 86,-120.1093 89,-117.1093 92,-117.1093 92,-117.1093 134,-117.1093 134,-117.1093 137,-117.1093 140,-120.1093 140,-123.1093 140,-123.1093 140,-129.1093 140,-129.1093 140,-132.1093 137,-135.1093 134,-135.1093"/>
<text text-anchor="middle" x="113" y="-123.9093" font-family="Helvetica,sans-Serif" font-size="9.00" fill="#000000">api.ts</text>
</a>
</g>
</g>
<!-- src/index.ts&#45;&gt;src/routes/api.ts -->
<g id="edge7" class="edge">
<title>src/index.ts&#45;&gt;src/routes/api.ts</title>
<path fill="none" stroke="#000000" stroke-width="2" stroke-opacity="0.200000" d="M54.9356,-96.159C61.5337,-100.9369 69.9955,-106.7054 78,-111.1093 80.0309,-112.2266 82.162,-113.3193 84.3278,-114.3731"/>
<polygon fill="#000000" fill-opacity="0.200000" stroke="#000000" stroke-width="2" stroke-opacity="0.200000" points="83.7714,-116.4306 90.0968,-117.0619 85.5457,-112.6237 83.7714,-116.4306"/>
</g>
<!-- src/routes/ws.ts -->
<g id="node10" class="node">
<title>src/routes/ws.ts</title>
<g id="a_node10"><a xlink:href="../src/routes/ws.ts" xlink:title="ws.ts">
<path fill="#ddfeff" stroke="#000000" d="M134,-105.1093C134,-105.1093 92,-105.1093 92,-105.1093 89,-105.1093 86,-102.1093 86,-99.1093 86,-99.1093 86,-93.1093 86,-93.1093 86,-90.1093 89,-87.1093 92,-87.1093 92,-87.1093 134,-87.1093 134,-87.1093 137,-87.1093 140,-90.1093 140,-93.1093 140,-93.1093 140,-99.1093 140,-99.1093 140,-102.1093 137,-105.1093 134,-105.1093"/>
<text text-anchor="middle" x="113" y="-93.9093" font-family="Helvetica,sans-Serif" font-size="9.00" fill="#000000">ws.ts</text>
</a>
</g>
</g>
<!-- src/index.ts&#45;&gt;src/routes/ws.ts -->
<g id="edge8" class="edge">
<title>src/index.ts&#45;&gt;src/routes/ws.ts</title>
<path fill="none" stroke="#000000" stroke-width="2" stroke-opacity="0.200000" d="M70.2643,-90.6147C73.273,-91.0015 76.3619,-91.3987 79.4361,-91.7939"/>
<polygon fill="#000000" fill-opacity="0.200000" stroke="#000000" stroke-width="2" stroke-opacity="0.200000" points="79.4761,-93.9163 85.695,-92.5986 80.0118,-89.7506 79.4761,-93.9163"/>
</g>
<!-- src/models/index.ts&#45;&gt;src/constants.ts -->
<g id="edge11" class="edge">
<title>src/models/index.ts&#45;&gt;src/constants.ts</title>
<path fill="none" stroke="#000000" stroke-width="2" stroke-opacity="0.200000" d="M207.7334,-146.9864C213.7663,-143.3453 220.45,-138.8831 226,-134.1093 237.5434,-124.1803 248.6874,-110.8859 256.3534,-100.9701"/>
<polygon fill="#000000" fill-opacity="0.200000" stroke="#000000" stroke-width="2" stroke-opacity="0.200000" points="258.0736,-102.1773 260.0289,-96.1286 254.7283,-99.6377 258.0736,-102.1773"/>
</g>
<!-- src/models/index.ts&#45;&gt;src/models/Todo.ts -->
<g id="edge12" class="edge">
<title>src/models/index.ts&#45;&gt;src/models/Todo.ts</title>
<path fill="none" stroke="#000000" stroke-width="2" stroke-opacity="0.200000" d="M218.2572,-156.1093C223.0685,-156.1093 228.1267,-156.1093 233.0839,-156.1093"/>
<polygon fill="#000000" fill-opacity="0.200000" stroke="#000000" stroke-width="2" stroke-opacity="0.200000" points="233.2828,-158.2094 239.2828,-156.1093 233.2827,-154.0094 233.2828,-158.2094"/>
</g>
<!-- src/routes/api.ts&#45;&gt;src/controlers/Todo.ts -->
<g id="edge13" class="edge">
<title>src/routes/api.ts&#45;&gt;src/controlers/Todo.ts</title>
<path fill="none" stroke="#000000" stroke-width="2" stroke-opacity="0.200000" d="M136.4026,-117.1083C144.3508,-114.0513 153.3339,-110.5962 161.6846,-107.3844"/>
<polygon fill="#000000" fill-opacity="0.200000" stroke="#000000" stroke-width="2" stroke-opacity="0.200000" points="162.4982,-109.3216 167.3444,-105.2076 160.9904,-105.4015 162.4982,-109.3216"/>
</g>
<!-- src/routes/ws.ts&#45;&gt;src/controlers/Todo.ts -->
<g id="edge14" class="edge">
<title>src/routes/ws.ts&#45;&gt;src/controlers/Todo.ts</title>
<path fill="none" stroke="#000000" stroke-width="2" stroke-opacity="0.200000" d="M140.2806,-96.1093C145.8942,-96.1093 151.865,-96.1093 157.6649,-96.1093"/>
<polygon fill="#000000" fill-opacity="0.200000" stroke="#000000" stroke-width="2" stroke-opacity="0.200000" points="157.8665,-98.2094 163.8665,-96.1093 157.8665,-94.0094 157.8665,-98.2094"/>
</g>
</g>
</svg>
