<?xml version="1.0" encoding="UTF-8" standalone="no"?>
<!DOCTYPE svg PUBLIC "-//W3C//DTD SVG 1.1//EN"
 "http://www.w3.org/Graphics/SVG/1.1/DTD/svg11.dtd">
<!-- Generated by graphviz version 2.40.1 (20161225.0304)
 -->
<!-- Title: dependency&#45;cruiser output Pages: 1 -->
<svg width="326pt" height="180pt"
 viewBox="0.00 0.00 325.50 180.00" xmlns="http://www.w3.org/2000/svg" xmlns:xlink="http://www.w3.org/1999/xlink">
<g id="graph0" class="graph" transform="scale(1 1) rotate(0) translate(4 176)">
<title>dependency&#45;cruiser output</title>
<polygon fill="#ffffff" stroke="transparent" points="-4,4 -4,-176 321.5,-176 321.5,4 -4,4"/>
<g id="clust1" class="cluster">
<title>cluster_src</title>
<path fill="#ffffff" stroke="#000000" stroke-width="2" d="M20,-8C20,-8 297.5,-8 297.5,-8 303.5,-8 309.5,-14 309.5,-20 309.5,-20 309.5,-152 309.5,-152 309.5,-158 303.5,-164 297.5,-164 297.5,-164 20,-164 20,-164 14,-164 8,-158 8,-152 8,-152 8,-20 8,-20 8,-14 14,-8 20,-8"/>
<text text-anchor="middle" x="158.75" y="-152.8" font-family="Helvetica,sans-Serif" font-weight="bold" font-size="9.00" fill="#000000">src</text>
</g>
<g id="clust2" class="cluster">
<title>cluster_src/controlers</title>
<path fill="#ffffff" stroke="#000000" stroke-width="2" d="M168,-26C168,-26 214,-26 214,-26 220,-26 226,-32 226,-38 226,-38 226,-66 226,-66 226,-72 220,-78 214,-78 214,-78 168,-78 168,-78 162,-78 156,-72 156,-66 156,-66 156,-38 156,-38 156,-32 162,-26 168,-26"/>
<text text-anchor="middle" x="191" y="-66.8" font-family="Helvetica,sans-Serif" font-weight="bold" font-size="9.00" fill="#000000">controlers</text>
</g>
<g id="clust3" class="cluster">
<title>cluster_src/models</title>
<path fill="#ffffff" stroke="#000000" stroke-width="2" d="M168,-86C168,-86 289.5,-86 289.5,-86 295.5,-86 301.5,-92 301.5,-98 301.5,-98 301.5,-126 301.5,-126 301.5,-132 295.5,-138 289.5,-138 289.5,-138 168,-138 168,-138 162,-138 156,-132 156,-126 156,-126 156,-98 156,-98 156,-92 162,-86 168,-86"/>
<text text-anchor="middle" x="228.75" y="-126.8" font-family="Helvetica,sans-Serif" font-weight="bold" font-size="9.00" fill="#000000">models</text>
</g>
<g id="clust4" class="cluster">
<title>cluster_src/routes</title>
<path fill="#ffffff" stroke="#000000" stroke-width="2" d="M90,-26C90,-26 136,-26 136,-26 142,-26 148,-32 148,-38 148,-38 148,-96 148,-96 148,-102 142,-108 136,-108 136,-108 90,-108 90,-108 84,-108 78,-102 78,-96 78,-96 78,-38 78,-38 78,-32 84,-26 90,-26"/>
<text text-anchor="middle" x="113" y="-96.8" font-family="Helvetica,sans-Serif" font-weight="bold" font-size="9.00" fill="#000000">routes</text>
</g>
<!-- src/constants.ts -->
<g id="node1" class="node">
<title>src/constants.ts</title>
<g id="a_node1"><a xlink:href="https://github.com/RascalTwo/Todo-Backend/blob/main/src/constants.ts" xlink:title="constants.ts">
<path fill="#ddfeff" stroke="#000000" d="M293,-52C293,-52 240,-52 240,-52 237,-52 234,-49 234,-46 234,-46 234,-40 234,-40 234,-37 237,-34 240,-34 240,-34 293,-34 293,-34 296,-34 299,-37 299,-40 299,-40 299,-46 299,-46 299,-49 296,-52 293,-52"/>
<text text-anchor="middle" x="266.5" y="-40.8" font-family="Helvetica,sans-Serif" font-size="9.00" fill="#000000">constants.ts</text>
</a>
</g>
</g>
<!-- src/controlers/Todo.ts -->
<g id="node2" class="node">
<title>src/controlers/Todo.ts</title>
<g id="a_node2"><a xlink:href="https://github.com/RascalTwo/Todo-Backend/blob/main/src/controlers/Todo.ts" xlink:title="Todo.ts">
<path fill="#ddfeff" stroke="#000000" d="M212,-52C212,-52 170,-52 170,-52 167,-52 164,-49 164,-46 164,-46 164,-40 164,-40 164,-37 167,-34 170,-34 170,-34 212,-34 212,-34 215,-34 218,-37 218,-40 218,-40 218,-46 218,-46 218,-49 215,-52 212,-52"/>
<text text-anchor="middle" x="191" y="-40.8" font-family="Helvetica,sans-Serif" font-size="9.00" fill="#000000">Todo.ts</text>
</a>
</g>
</g>
<!-- src/controlers/Todo.ts&#45;&gt;src/constants.ts -->
<g id="edge1" class="edge">
<title>src/controlers/Todo.ts&#45;&gt;src/constants.ts</title>
<path fill="none" stroke="#000000" stroke-width="2" stroke-opacity="0.200000" d="M218.2572,-43C221.2667,-43 224.3729,-43 227.4905,-43"/>
<polygon fill="#000000" fill-opacity="0.200000" stroke="#000000" stroke-width="2" stroke-opacity="0.200000" points="227.8786,-45.1001 233.8786,-43 227.8785,-40.9001 227.8786,-45.1001"/>
</g>
<!-- src/models/Todo.ts -->
<g id="node3" class="node">
<title>src/models/Todo.ts</title>
<g id="a_node3"><a xlink:href="https://github.com/RascalTwo/Todo-Backend/blob/main/src/models/Todo.ts" xlink:title="Todo.ts">
<path fill="#ddfeff" stroke="#000000" d="M287.5,-112C287.5,-112 245.5,-112 245.5,-112 242.5,-112 239.5,-109 239.5,-106 239.5,-106 239.5,-100 239.5,-100 239.5,-97 242.5,-94 245.5,-94 245.5,-94 287.5,-94 287.5,-94 290.5,-94 293.5,-97 293.5,-100 293.5,-100 293.5,-106 293.5,-106 293.5,-109 290.5,-112 287.5,-112"/>
<text text-anchor="middle" x="266.5" y="-100.8" font-family="Helvetica,sans-Serif" font-size="9.00" fill="#000000">Todo.ts</text>
</a>
</g>
</g>
<!-- src/controlers/Todo.ts&#45;&gt;src/models/Todo.ts -->
<g id="edge2" class="edge">
<title>src/controlers/Todo.ts&#45;&gt;src/models/Todo.ts</title>
<path fill="none" stroke="#000000" stroke-width="2" stroke-opacity="0.200000" d="M198.6282,-52.2788C208.6733,-64.3247 225.996,-84.4633 234,-90 234.3936,-90.2723 234.7937,-90.5401 235.1996,-90.8034"/>
<polygon fill="#000000" fill-opacity="0.200000" stroke="#000000" stroke-width="2" stroke-opacity="0.200000" points="234.4881,-92.8162 240.7378,-93.9789 236.5772,-89.1726 234.4881,-92.8162"/>
</g>
<!-- src/index.ts -->
<g id="node4" class="node">
<title>src/index.ts</title>
<g id="a_node4"><a xlink:href="https://github.com/RascalTwo/Todo-Backend/blob/main/src/index.ts" xlink:title="index.ts">
<path fill="#ddfeff" stroke="#000000" d="M64,-67C64,-67 22,-67 22,-67 19,-67 16,-64 16,-61 16,-61 16,-55 16,-55 16,-52 19,-49 22,-49 22,-49 64,-49 64,-49 67,-49 70,-52 70,-55 70,-55 70,-61 70,-61 70,-64 67,-67 64,-67"/>
<text text-anchor="middle" x="43" y="-55.8" font-family="Helvetica,sans-Serif" font-size="9.00" fill="#000000">index.ts</text>
</a>
</g>
</g>
<!-- src/index.ts&#45;&gt;src/constants.ts -->
<g id="edge3" class="edge">
<title>src/index.ts&#45;&gt;src/constants.ts</title>
<path fill="none" stroke="#000000" stroke-width="2" stroke-opacity="0.200000" d="M48.9456,-48.824C55.0639,-40.3103 65.4561,-28.1959 78,-23 138.7707,2.1721 161.9446,-8.0459 226,-23 233.0161,-24.6379 240.2126,-27.6762 246.5563,-30.8987"/>
<polygon fill="#000000" fill-opacity="0.200000" stroke="#000000" stroke-width="2" stroke-opacity="0.200000" points="245.8322,-32.8931 252.1129,-33.8751 247.8154,-29.1908 245.8322,-32.8931"/>
</g>
<!-- src/models/index.ts -->
<g id="node5" class="node">
<title>src/models/index.ts</title>
<g id="a_node5"><a xlink:href="https://github.com/RascalTwo/Todo-Backend/blob/main/src/models/index.ts" xlink:title="index.ts">
<path fill="#ddfeff" stroke="#000000" d="M212,-112C212,-112 170,-112 170,-112 167,-112 164,-109 164,-106 164,-106 164,-100 164,-100 164,-97 167,-94 170,-94 170,-94 212,-94 212,-94 215,-94 218,-97 218,-100 218,-100 218,-106 218,-106 218,-109 215,-112 212,-112"/>
<text text-anchor="middle" x="191" y="-100.8" font-family="Helvetica,sans-Serif" font-size="9.00" fill="#000000">index.ts</text>
</a>
</g>
</g>
<!-- src/index.ts&#45;&gt;src/models/index.ts -->
<g id="edge4" class="edge">
<title>src/index.ts&#45;&gt;src/models/index.ts</title>
<path fill="none" stroke="#000000" stroke-width="2" stroke-opacity="0.200000" d="M45.9538,-67.1726C50.546,-79.71 60.7152,-101.7008 78,-111 103.2273,-124.5722 136.3285,-120.1102 160.1769,-113.7422"/>
<polygon fill="#000000" fill-opacity="0.200000" stroke="#000000" stroke-width="2" stroke-opacity="0.200000" points="160.8253,-115.7414 166.0303,-112.092 159.6855,-111.6989 160.8253,-115.7414"/>
</g>
<!-- src/routes/api.ts -->
<g id="node6" class="node">
<title>src/routes/api.ts</title>
<g id="a_node6"><a xlink:href="https://github.com/RascalTwo/Todo-Backend/blob/main/src/routes/api.ts" xlink:title="api.ts">
<path fill="#ddfeff" stroke="#000000" d="M134,-82C134,-82 92,-82 92,-82 89,-82 86,-79 86,-76 86,-76 86,-70 86,-70 86,-67 89,-64 92,-64 92,-64 134,-64 134,-64 137,-64 140,-67 140,-70 140,-70 140,-76 140,-76 140,-79 137,-82 134,-82"/>
<text text-anchor="middle" x="113" y="-70.8" font-family="Helvetica,sans-Serif" font-size="9.00" fill="#000000">api.ts</text>
</a>
</g>
</g>
<!-- src/index.ts&#45;&gt;src/routes/api.ts -->
<g id="edge5" class="edge">
<title>src/index.ts&#45;&gt;src/routes/api.ts</title>
<path fill="none" stroke="#000000" stroke-width="2" stroke-opacity="0.200000" d="M70.2643,-63.8423C73.273,-64.4871 76.3619,-65.149 79.4361,-65.8077"/>
<polygon fill="#000000" fill-opacity="0.200000" stroke="#000000" stroke-width="2" stroke-opacity="0.200000" points="79.3881,-67.9451 85.695,-67.1489 80.2682,-63.8383 79.3881,-67.9451"/>
</g>
<!-- src/routes/ws.ts -->
<g id="node7" class="node">
<title>src/routes/ws.ts</title>
<g id="a_node7"><a xlink:href="https://github.com/RascalTwo/Todo-Backend/blob/main/src/routes/ws.ts" xlink:title="ws.ts">
<path fill="#ddfeff" stroke="#000000" d="M134,-52C134,-52 92,-52 92,-52 89,-52 86,-49 86,-46 86,-46 86,-40 86,-40 86,-37 89,-34 92,-34 92,-34 134,-34 134,-34 137,-34 140,-37 140,-40 140,-40 140,-46 140,-46 140,-49 137,-52 134,-52"/>
<text text-anchor="middle" x="113" y="-40.8" font-family="Helvetica,sans-Serif" font-size="9.00" fill="#000000">ws.ts</text>
</a>
</g>
</g>
<!-- src/index.ts&#45;&gt;src/routes/ws.ts -->
<g id="edge6" class="edge">
<title>src/index.ts&#45;&gt;src/routes/ws.ts</title>
<path fill="none" stroke="#000000" stroke-width="2" stroke-opacity="0.200000" d="M70.2643,-52.1577C73.273,-51.5129 76.3619,-50.851 79.4361,-50.1923"/>
<polygon fill="#000000" fill-opacity="0.200000" stroke="#000000" stroke-width="2" stroke-opacity="0.200000" points="80.2682,-52.1617 85.695,-48.8511 79.3881,-48.0549 80.2682,-52.1617"/>
</g>
<!-- src/models/index.ts&#45;&gt;src/constants.ts -->
<g id="edge7" class="edge">
<title>src/models/index.ts&#45;&gt;src/constants.ts</title>
<path fill="none" stroke="#000000" stroke-width="2" stroke-opacity="0.200000" d="M206.7645,-93.9799C212.9419,-90.2194 219.9777,-85.6486 226,-81 235.6073,-73.5842 245.5584,-64.2739 253.1925,-56.7251"/>
<polygon fill="#000000" fill-opacity="0.200000" stroke="#000000" stroke-width="2" stroke-opacity="0.200000" points="254.8712,-58.0158 257.6226,-52.2852 251.898,-55.0493 254.8712,-58.0158"/>
</g>
<!-- src/models/index.ts&#45;&gt;src/models/Todo.ts -->
<g id="edge8" class="edge">
<title>src/models/index.ts&#45;&gt;src/models/Todo.ts</title>
<path fill="none" stroke="#000000" stroke-width="2" stroke-opacity="0.200000" d="M218.2572,-103C223.0685,-103 228.1267,-103 233.0839,-103"/>
<polygon fill="#000000" fill-opacity="0.200000" stroke="#000000" stroke-width="2" stroke-opacity="0.200000" points="233.2828,-105.1001 239.2828,-103 233.2827,-100.9001 233.2828,-105.1001"/>
</g>
<!-- src/routes/api.ts&#45;&gt;src/controlers/Todo.ts -->
<g id="edge9" class="edge">
<title>src/routes/api.ts&#45;&gt;src/controlers/Todo.ts</title>
<path fill="none" stroke="#000000" stroke-width="2" stroke-opacity="0.200000" d="M136.4026,-63.999C144.3508,-60.942 153.3339,-57.4869 161.6846,-54.2751"/>
<polygon fill="#000000" fill-opacity="0.200000" stroke="#000000" stroke-width="2" stroke-opacity="0.200000" points="162.4982,-56.2123 167.3444,-52.0983 160.9904,-52.2922 162.4982,-56.2123"/>
</g>
<!-- src/routes/ws.ts&#45;&gt;src/controlers/Todo.ts -->
<g id="edge10" class="edge">
<title>src/routes/ws.ts&#45;&gt;src/controlers/Todo.ts</title>
<path fill="none" stroke="#000000" stroke-width="2" stroke-opacity="0.200000" d="M140.2806,-43C145.8942,-43 151.865,-43 157.6649,-43"/>
<polygon fill="#000000" fill-opacity="0.200000" stroke="#000000" stroke-width="2" stroke-opacity="0.200000" points="157.8665,-45.1001 163.8665,-43 157.8665,-40.9001 157.8665,-45.1001"/>
</g>
</g>
</svg>
