<?xml version="1.0" encoding="UTF-8" standalone="no"?>
<!DOCTYPE svg PUBLIC "-//W3C//DTD SVG 1.1//EN"
 "http://www.w3.org/Graphics/SVG/1.1/DTD/svg11.dtd">
<!-- Generated by graphviz version 2.40.1 (20161225.0304)
 -->
<!-- Title: dependency&#45;cruiser output Pages: 1 -->
<svg width="438pt" height="676pt"
 viewBox="0.00 0.00 437.50 676.00" xmlns="http://www.w3.org/2000/svg" xmlns:xlink="http://www.w3.org/1999/xlink">
<g id="graph0" class="graph" transform="scale(1 1) rotate(0) translate(4 672)">
<title>dependency&#45;cruiser output</title>
<polygon fill="#ffffff" stroke="transparent" points="-4,4 -4,-672 433.5,-672 433.5,4 -4,4"/>
<g id="clust1" class="cluster">
<title>cluster_node_modules</title>
<path fill="#ffffff" stroke="#000000" stroke-width="2" d="M329.5,-26C329.5,-26 410.5,-26 410.5,-26 416.5,-26 422.5,-32 422.5,-38 422.5,-38 422.5,-648 422.5,-648 422.5,-654 416.5,-660 410.5,-660 410.5,-660 329.5,-660 329.5,-660 323.5,-660 317.5,-654 317.5,-648 317.5,-648 317.5,-38 317.5,-38 317.5,-32 323.5,-26 329.5,-26"/>
<text text-anchor="middle" x="370" y="-648.8" font-family="Helvetica,sans-Serif" font-weight="bold" font-size="9.00" fill="#000000">node_modules</text>
</g>
<g id="clust2" class="cluster">
<title>cluster_node_modules/cors</title>
<path fill="#ffffff" stroke="#000000" stroke-width="2" d="M338.5,-548C338.5,-548 400.5,-548 400.5,-548 406.5,-548 412.5,-554 412.5,-560 412.5,-560 412.5,-622 412.5,-622 412.5,-628 406.5,-634 400.5,-634 400.5,-634 338.5,-634 338.5,-634 332.5,-634 326.5,-628 326.5,-622 326.5,-622 326.5,-560 326.5,-560 326.5,-554 332.5,-548 338.5,-548"/>
<text text-anchor="middle" x="369.5" y="-622.8" font-family="Helvetica,sans-Serif" font-weight="bold" font-size="9.00" fill="#000000">cors</text>
</g>
<g id="clust3" class="cluster">
<title>cluster_node_modules/cors/lib</title>
<path fill="#ffffff" stroke="#000000" stroke-width="2" d="M346.5,-556C346.5,-556 392.5,-556 392.5,-556 398.5,-556 404.5,-562 404.5,-568 404.5,-568 404.5,-596 404.5,-596 404.5,-602 398.5,-608 392.5,-608 392.5,-608 346.5,-608 346.5,-608 340.5,-608 334.5,-602 334.5,-596 334.5,-596 334.5,-568 334.5,-568 334.5,-562 340.5,-556 346.5,-556"/>
<text text-anchor="middle" x="369.5" y="-596.8" font-family="Helvetica,sans-Serif" font-weight="bold" font-size="9.00" fill="#000000">lib</text>
</g>
<g id="clust4" class="cluster">
<title>cluster_node_modules/dotenv</title>
<path fill="#ffffff" stroke="#000000" stroke-width="2" d="M338.5,-34C338.5,-34 400.5,-34 400.5,-34 406.5,-34 412.5,-40 412.5,-46 412.5,-46 412.5,-108 412.5,-108 412.5,-114 406.5,-120 400.5,-120 400.5,-120 338.5,-120 338.5,-120 332.5,-120 326.5,-114 326.5,-108 326.5,-108 326.5,-46 326.5,-46 326.5,-40 332.5,-34 338.5,-34"/>
<text text-anchor="middle" x="369.5" y="-108.8" font-family="Helvetica,sans-Serif" font-weight="bold" font-size="9.00" fill="#000000">dotenv</text>
</g>
<g id="clust5" class="cluster">
<title>cluster_node_modules/dotenv/lib</title>
<path fill="#ffffff" stroke="#000000" stroke-width="2" d="M346.5,-42C346.5,-42 392.5,-42 392.5,-42 398.5,-42 404.5,-48 404.5,-54 404.5,-54 404.5,-82 404.5,-82 404.5,-88 398.5,-94 392.5,-94 392.5,-94 346.5,-94 346.5,-94 340.5,-94 334.5,-88 334.5,-82 334.5,-82 334.5,-54 334.5,-54 334.5,-48 340.5,-42 346.5,-42"/>
<text text-anchor="middle" x="369.5" y="-82.8" font-family="Helvetica,sans-Serif" font-weight="bold" font-size="9.00" fill="#000000">lib</text>
</g>
<g id="clust6" class="cluster">
<title>cluster_node_modules/express&#45;session</title>
<path fill="#ffffff" stroke="#000000" stroke-width="2" d="M337.5,-488C337.5,-488 402.5,-488 402.5,-488 408.5,-488 414.5,-494 414.5,-500 414.5,-500 414.5,-528 414.5,-528 414.5,-534 408.5,-540 402.5,-540 402.5,-540 337.5,-540 337.5,-540 331.5,-540 325.5,-534 325.5,-528 325.5,-528 325.5,-500 325.5,-500 325.5,-494 331.5,-488 337.5,-488"/>
<text text-anchor="middle" x="370" y="-528.8" font-family="Helvetica,sans-Serif" font-weight="bold" font-size="9.00" fill="#000000">express&#45;session</text>
</g>
<g id="clust7" class="cluster">
<title>cluster_node_modules/express&#45;ws</title>
<path fill="#ffffff" stroke="#000000" stroke-width="2" d="M346.5,-308C346.5,-308 392.5,-308 392.5,-308 398.5,-308 404.5,-314 404.5,-320 404.5,-320 404.5,-348 404.5,-348 404.5,-354 398.5,-360 392.5,-360 392.5,-360 346.5,-360 346.5,-360 340.5,-360 334.5,-354 334.5,-348 334.5,-348 334.5,-320 334.5,-320 334.5,-314 340.5,-308 346.5,-308"/>
<text text-anchor="middle" x="369.5" y="-348.8" font-family="Helvetica,sans-Serif" font-weight="bold" font-size="9.00" fill="#000000">express&#45;ws</text>
</g>
<g id="clust8" class="cluster">
<title>cluster_node_modules/express</title>
<path fill="#ffffff" stroke="#000000" stroke-width="2" d="M346.5,-368C346.5,-368 392.5,-368 392.5,-368 398.5,-368 404.5,-374 404.5,-380 404.5,-380 404.5,-408 404.5,-408 404.5,-414 398.5,-420 392.5,-420 392.5,-420 346.5,-420 346.5,-420 340.5,-420 334.5,-414 334.5,-408 334.5,-408 334.5,-380 334.5,-380 334.5,-374 340.5,-368 346.5,-368"/>
<text text-anchor="middle" x="369.5" y="-408.8" font-family="Helvetica,sans-Serif" font-weight="bold" font-size="9.00" fill="#000000">express</text>
</g>
<g id="clust9" class="cluster">
<title>cluster_node_modules/morgan</title>
<path fill="#ffffff" stroke="#000000" stroke-width="2" d="M346.5,-428C346.5,-428 392.5,-428 392.5,-428 398.5,-428 404.5,-434 404.5,-440 404.5,-440 404.5,-468 404.5,-468 404.5,-474 398.5,-480 392.5,-480 392.5,-480 346.5,-480 346.5,-480 340.5,-480 334.5,-474 334.5,-468 334.5,-468 334.5,-440 334.5,-440 334.5,-434 340.5,-428 346.5,-428"/>
<text text-anchor="middle" x="369.5" y="-468.8" font-family="Helvetica,sans-Serif" font-weight="bold" font-size="9.00" fill="#000000">morgan</text>
</g>
<g id="clust10" class="cluster">
<title>cluster_node_modules/sequelize</title>
<path fill="#ffffff" stroke="#000000" stroke-width="2" d="M337.5,-128C337.5,-128 401.5,-128 401.5,-128 407.5,-128 413.5,-134 413.5,-140 413.5,-140 413.5,-228 413.5,-228 413.5,-234 407.5,-240 401.5,-240 401.5,-240 337.5,-240 337.5,-240 331.5,-240 325.5,-234 325.5,-228 325.5,-228 325.5,-140 325.5,-140 325.5,-134 331.5,-128 337.5,-128"/>
<text text-anchor="middle" x="369.5" y="-228.8" font-family="Helvetica,sans-Serif" font-weight="bold" font-size="9.00" fill="#000000">sequelize</text>
</g>
<g id="clust11" class="cluster">
<title>cluster_node_modules/sequelize/types</title>
<path fill="#ffffff" stroke="#000000" stroke-width="2" d="M345.5,-136C345.5,-136 393.5,-136 393.5,-136 399.5,-136 405.5,-142 405.5,-148 405.5,-148 405.5,-176 405.5,-176 405.5,-182 399.5,-188 393.5,-188 393.5,-188 345.5,-188 345.5,-188 339.5,-188 333.5,-182 333.5,-176 333.5,-176 333.5,-148 333.5,-148 333.5,-142 339.5,-136 345.5,-136"/>
<text text-anchor="middle" x="369.5" y="-176.8" font-family="Helvetica,sans-Serif" font-weight="bold" font-size="9.00" fill="#000000">types</text>
</g>
<g id="clust12" class="cluster">
<title>cluster_node_modules/ws</title>
<path fill="#ffffff" stroke="#000000" stroke-width="2" d="M346.5,-248C346.5,-248 392.5,-248 392.5,-248 398.5,-248 404.5,-254 404.5,-260 404.5,-260 404.5,-288 404.5,-288 404.5,-294 398.5,-300 392.5,-300 392.5,-300 346.5,-300 346.5,-300 340.5,-300 334.5,-294 334.5,-288 334.5,-288 334.5,-260 334.5,-260 334.5,-254 340.5,-248 346.5,-248"/>
<text text-anchor="middle" x="369.5" y="-288.8" font-family="Helvetica,sans-Serif" font-weight="bold" font-size="9.00" fill="#000000">ws</text>
</g>
<g id="clust13" class="cluster">
<title>cluster_src</title>
<path fill="#ffffff" stroke="#000000" stroke-width="2" d="M20,-131C20,-131 297.5,-131 297.5,-131 303.5,-131 309.5,-137 309.5,-143 309.5,-143 309.5,-291 309.5,-291 309.5,-297 303.5,-303 297.5,-303 297.5,-303 20,-303 20,-303 14,-303 8,-297 8,-291 8,-291 8,-143 8,-143 8,-137 14,-131 20,-131"/>
<text text-anchor="middle" x="158.75" y="-291.8" font-family="Helvetica,sans-Serif" font-weight="bold" font-size="9.00" fill="#000000">src</text>
</g>
<g id="clust14" class="cluster">
<title>cluster_src/controlers</title>
<path fill="#ffffff" stroke="#000000" stroke-width="2" d="M168,-225C168,-225 214,-225 214,-225 220,-225 226,-231 226,-237 226,-237 226,-265 226,-265 226,-271 220,-277 214,-277 214,-277 168,-277 168,-277 162,-277 156,-271 156,-265 156,-265 156,-237 156,-237 156,-231 162,-225 168,-225"/>
<text text-anchor="middle" x="191" y="-265.8" font-family="Helvetica,sans-Serif" font-weight="bold" font-size="9.00" fill="#000000">controlers</text>
</g>
<g id="clust15" class="cluster">
<title>cluster_src/models</title>
<path fill="#ffffff" stroke="#000000" stroke-width="2" d="M168,-165C168,-165 289.5,-165 289.5,-165 295.5,-165 301.5,-171 301.5,-177 301.5,-177 301.5,-205 301.5,-205 301.5,-211 295.5,-217 289.5,-217 289.5,-217 168,-217 168,-217 162,-217 156,-211 156,-205 156,-205 156,-177 156,-177 156,-171 162,-165 168,-165"/>
<text text-anchor="middle" x="228.75" y="-205.8" font-family="Helvetica,sans-Serif" font-weight="bold" font-size="9.00" fill="#000000">models</text>
</g>
<g id="clust16" class="cluster">
<title>cluster_src/routes</title>
<path fill="#ffffff" stroke="#000000" stroke-width="2" d="M90,-195C90,-195 136,-195 136,-195 142,-195 148,-201 148,-207 148,-207 148,-265 148,-265 148,-271 142,-277 136,-277 136,-277 90,-277 90,-277 84,-277 78,-271 78,-265 78,-265 78,-207 78,-207 78,-201 84,-195 90,-195"/>
<text text-anchor="middle" x="113" y="-265.8" font-family="Helvetica,sans-Serif" font-weight="bold" font-size="9.00" fill="#000000">routes</text>
</g>
<!-- crypto -->
<g id="node1" class="node">
<title>crypto</title>
<path fill="#ffffcc" stroke="#c0c0c0" d="M287.5,-329C287.5,-329 245.5,-329 245.5,-329 242.5,-329 239.5,-326 239.5,-323 239.5,-323 239.5,-317 239.5,-317 239.5,-314 242.5,-311 245.5,-311 245.5,-311 287.5,-311 287.5,-311 290.5,-311 293.5,-314 293.5,-317 293.5,-317 293.5,-323 293.5,-323 293.5,-326 290.5,-329 287.5,-329"/>
<text text-anchor="middle" x="266.5" y="-317.8" font-family="Helvetica,sans-Serif" font-size="9.00" fill="#c0c0c0">crypto</text>
</g>
<!-- fs -->
<g id="node2" class="node">
<title>fs</title>
<path fill="#ffffcc" stroke="#c0c0c0" d="M134,-101C134,-101 92,-101 92,-101 89,-101 86,-98 86,-95 86,-95 86,-89 86,-89 86,-86 89,-83 92,-83 92,-83 134,-83 134,-83 137,-83 140,-86 140,-89 140,-89 140,-95 140,-95 140,-98 137,-101 134,-101"/>
<text text-anchor="middle" x="113" y="-89.8" font-family="Helvetica,sans-Serif" font-size="9.00" fill="#c0c0c0">fs</text>
</g>
<!-- node_modules/cors/lib/index.js -->
<g id="node3" class="node">
<title>node_modules/cors/lib/index.js</title>
<g id="a_node3"><a xlink:title="index.js">
<polygon fill="#c40b0a" fill-opacity="0.101961" stroke="#000000" points="396.5,-582 395,-584 384.5,-584 383,-582 342.5,-582 342.5,-564 396.5,-564 396.5,-582"/>
<text text-anchor="middle" x="369.5" y="-570.8" font-family="Helvetica,sans-Serif" font-size="9.00" fill="#c40b0a">index.js</text>
</a>
</g>
</g>
<!-- node_modules/dotenv/lib/main.js -->
<g id="node4" class="node">
<title>node_modules/dotenv/lib/main.js</title>
<g id="a_node4"><a xlink:title="main.js">
<polygon fill="#c40b0a" fill-opacity="0.101961" stroke="#000000" points="396.5,-68 395,-70 384.5,-70 383,-68 342.5,-68 342.5,-50 396.5,-50 396.5,-68"/>
<text text-anchor="middle" x="369.5" y="-56.8" font-family="Helvetica,sans-Serif" font-size="9.00" fill="#c40b0a">main.js</text>
</a>
</g>
</g>
<!-- node_modules/express&#45;session/index.js -->
<g id="node5" class="node">
<title>node_modules/express&#45;session/index.js</title>
<g id="a_node5"><a xlink:title="index.js">
<polygon fill="#c40b0a" fill-opacity="0.101961" stroke="#000000" points="396.5,-514 395,-516 384.5,-516 383,-514 342.5,-514 342.5,-496 396.5,-496 396.5,-514"/>
<text text-anchor="middle" x="369.5" y="-502.8" font-family="Helvetica,sans-Serif" font-size="9.00" fill="#c40b0a">index.js</text>
</a>
</g>
</g>
<!-- node_modules/express&#45;ws/index.js -->
<g id="node6" class="node">
<title>node_modules/express&#45;ws/index.js</title>
<g id="a_node6"><a xlink:title="index.js">
<polygon fill="#c40b0a" fill-opacity="0.101961" stroke="#000000" points="396.5,-334 395,-336 384.5,-336 383,-334 342.5,-334 342.5,-316 396.5,-316 396.5,-334"/>
<text text-anchor="middle" x="369.5" y="-322.8" font-family="Helvetica,sans-Serif" font-size="9.00" fill="#c40b0a">index.js</text>
</a>
</g>
</g>
<!-- node_modules/express/index.js -->
<g id="node7" class="node">
<title>node_modules/express/index.js</title>
<g id="a_node7"><a xlink:title="index.js">
<polygon fill="#c40b0a" fill-opacity="0.101961" stroke="#000000" points="396.5,-394 395,-396 384.5,-396 383,-394 342.5,-394 342.5,-376 396.5,-376 396.5,-394"/>
<text text-anchor="middle" x="369.5" y="-382.8" font-family="Helvetica,sans-Serif" font-size="9.00" fill="#c40b0a">index.js</text>
</a>
</g>
</g>
<!-- node_modules/morgan/index.js -->
<g id="node8" class="node">
<title>node_modules/morgan/index.js</title>
<g id="a_node8"><a xlink:title="index.js">
<polygon fill="#c40b0a" fill-opacity="0.101961" stroke="#000000" points="396.5,-454 395,-456 384.5,-456 383,-454 342.5,-454 342.5,-436 396.5,-436 396.5,-454"/>
<text text-anchor="middle" x="369.5" y="-442.8" font-family="Helvetica,sans-Serif" font-size="9.00" fill="#c40b0a">index.js</text>
</a>
</g>
</g>
<!-- node_modules/sequelize/index.js -->
<g id="node9" class="node">
<title>node_modules/sequelize/index.js</title>
<g id="a_node9"><a xlink:title="index.js">
<polygon fill="#c40b0a" fill-opacity="0.101961" stroke="#000000" points="396.5,-214 395,-216 384.5,-216 383,-214 342.5,-214 342.5,-196 396.5,-196 396.5,-214"/>
<text text-anchor="middle" x="369.5" y="-202.8" font-family="Helvetica,sans-Serif" font-size="9.00" fill="#c40b0a">index.js</text>
</a>
</g>
</g>
<!-- node_modules/sequelize/types/index.d.ts -->
<g id="node10" class="node">
<title>node_modules/sequelize/types/index.d.ts</title>
<g id="a_node10"><a xlink:title="index.d.ts">
<polygon fill="#c40b0a" fill-opacity="0.101961" stroke="#000000" points="397.5,-162 396,-164 385.5,-164 384,-162 341.5,-162 341.5,-144 397.5,-144 397.5,-162"/>
<text text-anchor="middle" x="369.5" y="-150.8" font-family="Helvetica,sans-Serif" font-size="9.00" fill="#c40b0a">index.d.ts</text>
</a>
</g>
</g>
<!-- node_modules/ws/index.js -->
<g id="node11" class="node">
<title>node_modules/ws/index.js</title>
<g id="a_node11"><a xlink:title="index.js">
<polygon fill="#c40b0a" fill-opacity="0.101961" stroke="#000000" points="396.5,-274 395,-276 384.5,-276 383,-274 342.5,-274 342.5,-256 396.5,-256 396.5,-274"/>
<text text-anchor="middle" x="369.5" y="-262.8" font-family="Helvetica,sans-Serif" font-size="9.00" fill="#c40b0a">index.js</text>
</a>
</g>
</g>
<!-- path -->
<g id="node12" class="node">
<title>path</title>
<path fill="#ffffcc" stroke="#c0c0c0" d="M390.5,-18C390.5,-18 348.5,-18 348.5,-18 345.5,-18 342.5,-15 342.5,-12 342.5,-12 342.5,-6 342.5,-6 342.5,-3 345.5,0 348.5,0 348.5,0 390.5,0 390.5,0 393.5,0 396.5,-3 396.5,-6 396.5,-6 396.5,-12 396.5,-12 396.5,-15 393.5,-18 390.5,-18"/>
<text text-anchor="middle" x="369.5" y="-6.8" font-family="Helvetica,sans-Serif" font-size="9.00" fill="#c0c0c0">path</text>
</g>
<!-- src/constants.ts -->
<g id="node13" class="node">
<title>src/constants.ts</title>
<g id="a_node13"><a xlink:href="https://github.com/RascalTwo/Todo-Backend/blob/main/src/constants.ts" xlink:title="constants.ts">
<path fill="#ddfeff" stroke="#000000" d="M293,-157C293,-157 240,-157 240,-157 237,-157 234,-154 234,-151 234,-151 234,-145 234,-145 234,-142 237,-139 240,-139 240,-139 293,-139 293,-139 296,-139 299,-142 299,-145 299,-145 299,-151 299,-151 299,-154 296,-157 293,-157"/>
<text text-anchor="middle" x="266.5" y="-145.8" font-family="Helvetica,sans-Serif" font-size="9.00" fill="#000000">constants.ts</text>
</a>
</g>
</g>
<!-- src/constants.ts&#45;&gt;node_modules/dotenv/lib/main.js -->
<g id="edge1" class="edge">
<title>src/constants.ts&#45;&gt;node_modules/dotenv/lib/main.js</title>
<path fill="none" stroke="#000000" stroke-opacity="0.200000" d="M277.5,-138.8107C277.5,-116.0713 277.5,-59 277.5,-59 277.5,-59 336.3946,-59 336.3946,-59"/>
<polygon fill="#000000" fill-opacity="0.200000" stroke="#000000" stroke-opacity="0.200000" points="336.3946,-61.1001 342.3946,-59 336.3945,-56.9001 336.3946,-61.1001"/>
</g>
<!-- src/constants.ts&#45;&gt;node_modules/sequelize/types/index.d.ts -->
<g id="edge3" class="edge">
<title>src/constants.ts&#45;&gt;node_modules/sequelize/types/index.d.ts</title>
<path fill="none" stroke="#000000" stroke-opacity="0.200000" d="M299.0898,-150.5C299.0898,-150.5 335.2867,-150.5 335.2867,-150.5"/>
<polygon fill="#000000" fill-opacity="0.200000" stroke="#000000" stroke-opacity="0.200000" points="335.2867,-152.6001 341.2867,-150.5 335.2867,-148.4001 335.2867,-152.6001"/>
</g>
<!-- src/constants.ts&#45;&gt;path -->
<g id="edge2" class="edge">
<title>src/constants.ts&#45;&gt;path</title>
<path fill="none" stroke="#000000" stroke-dasharray="5,2" stroke-opacity="0.200000" d="M256.5,-138.6522C256.5,-107.9259 256.5,-12 256.5,-12 256.5,-12 336.4337,-12 336.4337,-12"/>
<polygon fill="#000000" fill-opacity="0.200000" stroke="#000000" stroke-opacity="0.200000" points="336.4337,-14.1001 342.4337,-12 336.4336,-9.9001 336.4337,-14.1001"/>
</g>
<!-- src/controlers/Todo.ts -->
<g id="node14" class="node">
<title>src/controlers/Todo.ts</title>
<g id="a_node14"><a xlink:href="https://github.com/RascalTwo/Todo-Backend/blob/main/src/controlers/Todo.ts" xlink:title="Todo.ts">
<path fill="#ddfeff" stroke="#000000" d="M212,-251C212,-251 170,-251 170,-251 167,-251 164,-248 164,-245 164,-245 164,-239 164,-239 164,-236 167,-233 170,-233 170,-233 212,-233 212,-233 215,-233 218,-236 218,-239 218,-239 218,-245 218,-245 218,-248 215,-251 212,-251"/>
<text text-anchor="middle" x="191" y="-239.8" font-family="Helvetica,sans-Serif" font-size="9.00" fill="#000000">Todo.ts</text>
</a>
</g>
</g>
<!-- src/controlers/Todo.ts&#45;&gt;crypto -->
<g id="edge6" class="edge">
<title>src/controlers/Todo.ts&#45;&gt;crypto</title>
<path fill="none" stroke="#000000" stroke-dasharray="5,2" stroke-opacity="0.200000" d="M218.2316,-248C235.0741,-248 253.5,-248 253.5,-248 253.5,-248 253.5,-304.8812 253.5,-304.8812"/>
<polygon fill="#000000" fill-opacity="0.200000" stroke="#000000" stroke-opacity="0.200000" points="251.4001,-304.8811 253.5,-310.8812 255.6001,-304.8812 251.4001,-304.8811"/>
</g>
<!-- src/controlers/Todo.ts&#45;&gt;node_modules/express&#45;ws/index.js -->
<g id="edge8" class="edge">
<title>src/controlers/Todo.ts&#45;&gt;node_modules/express&#45;ws/index.js</title>
<path fill="none" stroke="#000000" stroke-opacity="0.200000" d="M218.1474,-245C256.121,-245 320.5,-245 320.5,-245 320.5,-245 320.5,-322.5 320.5,-322.5 320.5,-322.5 336.4203,-322.5 336.4203,-322.5"/>
<polygon fill="#000000" fill-opacity="0.200000" stroke="#000000" stroke-opacity="0.200000" points="336.4203,-324.6001 342.4203,-322.5 336.4202,-320.4001 336.4203,-324.6001"/>
</g>
<!-- src/controlers/Todo.ts&#45;&gt;node_modules/express/index.js -->
<g id="edge7" class="edge">
<title>src/controlers/Todo.ts&#45;&gt;node_modules/express/index.js</title>
<path fill="none" stroke="#000000" stroke-opacity="0.200000" d="M191.5,-251.0283C191.5,-281.6406 191.5,-379.6 191.5,-379.6 191.5,-379.6 336.4656,-379.6 336.4656,-379.6"/>
<polygon fill="#000000" fill-opacity="0.200000" stroke="#000000" stroke-opacity="0.200000" points="336.4657,-381.7001 342.4656,-379.6 336.4656,-377.5001 336.4657,-381.7001"/>
</g>
<!-- src/controlers/Todo.ts&#45;&gt;node_modules/ws/index.js -->
<g id="edge9" class="edge">
<title>src/controlers/Todo.ts&#45;&gt;node_modules/ws/index.js</title>
<path fill="none" stroke="#000000" stroke-opacity="0.200000" d="M218.1103,-242C268.0451,-242 369.5,-242 369.5,-242 369.5,-242 369.5,-249.9098 369.5,-249.9098"/>
<polygon fill="#000000" fill-opacity="0.200000" stroke="#000000" stroke-opacity="0.200000" points="367.4001,-249.9098 369.5,-255.9098 371.6001,-249.9098 367.4001,-249.9098"/>
</g>
<!-- src/controlers/Todo.ts&#45;&gt;src/constants.ts -->
<g id="edge4" class="edge">
<title>src/controlers/Todo.ts&#45;&gt;src/constants.ts</title>
<path fill="none" stroke="#000000" stroke-width="2" stroke-opacity="0.200000" d="M218.2664,-236C223.0332,-236 226.5,-236 226.5,-236 226.5,-236 226.5,-152.5 226.5,-152.5 226.5,-152.5 227.8366,-152.5 227.8366,-152.5"/>
<polygon fill="#000000" fill-opacity="0.200000" stroke="#000000" stroke-width="2" stroke-opacity="0.200000" points="227.8367,-154.6001 233.8366,-152.5 227.8366,-150.4001 227.8367,-154.6001"/>
</g>
<!-- src/models/Todo.ts -->
<g id="node15" class="node">
<title>src/models/Todo.ts</title>
<g id="a_node15"><a xlink:href="https://github.com/RascalTwo/Todo-Backend/blob/main/src/models/Todo.ts" xlink:title="Todo.ts">
<path fill="#ddfeff" stroke="#000000" d="M287.5,-191C287.5,-191 245.5,-191 245.5,-191 242.5,-191 239.5,-188 239.5,-185 239.5,-185 239.5,-179 239.5,-179 239.5,-176 242.5,-173 245.5,-173 245.5,-173 287.5,-173 287.5,-173 290.5,-173 293.5,-176 293.5,-179 293.5,-179 293.5,-185 293.5,-185 293.5,-188 290.5,-191 287.5,-191"/>
<text text-anchor="middle" x="266.5" y="-179.8" font-family="Helvetica,sans-Serif" font-size="9.00" fill="#000000">Todo.ts</text>
</a>
</g>
</g>
<!-- src/controlers/Todo.ts&#45;&gt;src/models/Todo.ts -->
<g id="edge5" class="edge">
<title>src/controlers/Todo.ts&#45;&gt;src/models/Todo.ts</title>
<path fill="none" stroke="#000000" stroke-width="2" stroke-opacity="0.200000" d="M218.2572,-239C239.8833,-239 266.5,-239 266.5,-239 266.5,-239 266.5,-197.158 266.5,-197.158"/>
<polygon fill="#000000" fill-opacity="0.200000" stroke="#000000" stroke-width="2" stroke-opacity="0.200000" points="268.6001,-197.158 266.5,-191.158 264.4001,-197.1581 268.6001,-197.158"/>
</g>
<!-- src/models/Todo.ts&#45;&gt;node_modules/sequelize/index.js -->
<g id="edge21" class="edge">
<title>src/models/Todo.ts&#45;&gt;node_modules/sequelize/index.js</title>
<path fill="none" stroke="#000000" stroke-opacity="0.200000" d="M280.5,-191.3117C280.5,-194.9797 280.5,-198.3333 280.5,-198.3333 280.5,-198.3333 336.3135,-198.3333 336.3135,-198.3333"/>
<polygon fill="#000000" fill-opacity="0.200000" stroke="#000000" stroke-opacity="0.200000" points="336.3135,-200.4334 342.3135,-198.3333 336.3134,-196.2334 336.3135,-200.4334"/>
</g>
<!-- src/index.ts -->
<g id="node16" class="node">
<title>src/index.ts</title>
<g id="a_node16"><a xlink:href="https://github.com/RascalTwo/Todo-Backend/blob/main/src/index.ts" xlink:title="index.ts">
<path fill="#ddfeff" stroke="#000000" d="M64,-251C64,-251 22,-251 22,-251 19,-251 16,-248 16,-245 16,-245 16,-239 16,-239 16,-236 19,-233 22,-233 22,-233 64,-233 64,-233 67,-233 70,-236 70,-239 70,-239 70,-245 70,-245 70,-248 67,-251 64,-251"/>
<text text-anchor="middle" x="43" y="-239.8" font-family="Helvetica,sans-Serif" font-size="9.00" fill="#000000">index.ts</text>
</a>
</g>
</g>
<!-- src/index.ts&#45;&gt;fs -->
<g id="edge18" class="edge">
<title>src/index.ts&#45;&gt;fs</title>
<path fill="none" stroke="#000000" stroke-dasharray="5,2" stroke-opacity="0.200000" d="M34.5,-232.6168C34.5,-199.7782 34.5,-92 34.5,-92 34.5,-92 79.9848,-92 79.9848,-92"/>
<polygon fill="#000000" fill-opacity="0.200000" stroke="#000000" stroke-opacity="0.200000" points="79.9848,-94.1001 85.9848,-92 79.9847,-89.9001 79.9848,-94.1001"/>
</g>
<!-- src/index.ts&#45;&gt;node_modules/cors/lib/index.js -->
<g id="edge14" class="edge">
<title>src/index.ts&#45;&gt;node_modules/cors/lib/index.js</title>
<path fill="none" stroke="#000000" stroke-opacity="0.200000" d="M25.5,-251.1983C25.5,-304.6572 25.5,-573 25.5,-573 25.5,-573 336.2194,-573 336.2194,-573"/>
<polygon fill="#000000" fill-opacity="0.200000" stroke="#000000" stroke-opacity="0.200000" points="336.2194,-575.1001 342.2194,-573 336.2193,-570.9001 336.2194,-575.1001"/>
</g>
<!-- src/index.ts&#45;&gt;node_modules/express&#45;session/index.js -->
<g id="edge16" class="edge">
<title>src/index.ts&#45;&gt;node_modules/express&#45;session/index.js</title>
<path fill="none" stroke="#000000" stroke-opacity="0.200000" d="M34.5,-251.0531C34.5,-297.299 34.5,-505 34.5,-505 34.5,-505 336.3693,-505 336.3693,-505"/>
<polygon fill="#000000" fill-opacity="0.200000" stroke="#000000" stroke-opacity="0.200000" points="336.3693,-507.1001 342.3693,-505 336.3693,-502.9001 336.3693,-507.1001"/>
</g>
<!-- src/index.ts&#45;&gt;node_modules/express&#45;ws/index.js -->
<g id="edge17" class="edge">
<title>src/index.ts&#45;&gt;node_modules/express&#45;ws/index.js</title>
<path fill="none" stroke="#000000" stroke-opacity="0.200000" d="M61.5,-251.2625C61.5,-265.8414 61.5,-292.5 61.5,-292.5 61.5,-292.5 369.5,-292.5 369.5,-292.5 369.5,-292.5 369.5,-309.7737 369.5,-309.7737"/>
<polygon fill="#000000" fill-opacity="0.200000" stroke="#000000" stroke-opacity="0.200000" points="367.4001,-309.7737 369.5,-315.7737 371.6001,-309.7738 367.4001,-309.7737"/>
</g>
<!-- src/index.ts&#45;&gt;node_modules/express/index.js -->
<g id="edge15" class="edge">
<title>src/index.ts&#45;&gt;node_modules/express/index.js</title>
<path fill="none" stroke="#000000" stroke-opacity="0.200000" d="M52.5,-251.2831C52.5,-283.7715 52.5,-390.4 52.5,-390.4 52.5,-390.4 336.4728,-390.4 336.4728,-390.4"/>
<polygon fill="#000000" fill-opacity="0.200000" stroke="#000000" stroke-opacity="0.200000" points="336.4728,-392.5001 342.4728,-390.4 336.4727,-388.3001 336.4728,-392.5001"/>
</g>
<!-- src/index.ts&#45;&gt;node_modules/morgan/index.js -->
<g id="edge19" class="edge">
<title>src/index.ts&#45;&gt;node_modules/morgan/index.js</title>
<path fill="none" stroke="#000000" stroke-opacity="0.200000" d="M43.5,-251.25C43.5,-290.9627 43.5,-445 43.5,-445 43.5,-445 336.2661,-445 336.2661,-445"/>
<polygon fill="#000000" fill-opacity="0.200000" stroke="#000000" stroke-opacity="0.200000" points="336.2662,-447.1001 342.2661,-445 336.2661,-442.9001 336.2662,-447.1001"/>
</g>
<!-- src/index.ts&#45;&gt;path -->
<g id="edge20" class="edge">
<title>src/index.ts&#45;&gt;path</title>
<path fill="none" stroke="#000000" stroke-dasharray="5,2" stroke-opacity="0.200000" d="M25.5,-232.7485C25.5,-189.1155 25.5,-6 25.5,-6 25.5,-6 336.2194,-6 336.2194,-6"/>
<polygon fill="#000000" fill-opacity="0.200000" stroke="#000000" stroke-opacity="0.200000" points="336.2194,-8.1001 342.2194,-6 336.2193,-3.9001 336.2194,-8.1001"/>
</g>
<!-- src/index.ts&#45;&gt;src/constants.ts -->
<g id="edge10" class="edge">
<title>src/index.ts&#45;&gt;src/constants.ts</title>
<path fill="none" stroke="#000000" stroke-width="2" stroke-opacity="0.200000" d="M43.5,-232.9099C43.5,-208.5254 43.5,-143.5 43.5,-143.5 43.5,-143.5 227.5956,-143.5 227.5956,-143.5"/>
<polygon fill="#000000" fill-opacity="0.200000" stroke="#000000" stroke-width="2" stroke-opacity="0.200000" points="227.5956,-145.6001 233.5956,-143.5 227.5955,-141.4001 227.5956,-145.6001"/>
</g>
<!-- src/models/index.ts -->
<g id="node17" class="node">
<title>src/models/index.ts</title>
<g id="a_node17"><a xlink:href="https://github.com/RascalTwo/Todo-Backend/blob/main/src/models/index.ts" xlink:title="index.ts">
<path fill="#ddfeff" stroke="#000000" d="M212,-191C212,-191 170,-191 170,-191 167,-191 164,-188 164,-185 164,-185 164,-179 164,-179 164,-176 167,-173 170,-173 170,-173 212,-173 212,-173 215,-173 218,-176 218,-179 218,-179 218,-185 218,-185 218,-188 215,-191 212,-191"/>
<text text-anchor="middle" x="191" y="-179.8" font-family="Helvetica,sans-Serif" font-size="9.00" fill="#000000">index.ts</text>
</a>
</g>
</g>
<!-- src/index.ts&#45;&gt;src/models/index.ts -->
<g id="edge11" class="edge">
<title>src/index.ts&#45;&gt;src/models/index.ts</title>
<path fill="none" stroke="#000000" stroke-width="2" stroke-opacity="0.200000" d="M52.5,-232.8873C52.5,-216.1025 52.5,-182 52.5,-182 52.5,-182 157.967,-182 157.967,-182"/>
<polygon fill="#000000" fill-opacity="0.200000" stroke="#000000" stroke-width="2" stroke-opacity="0.200000" points="157.9671,-184.1001 163.967,-182 157.967,-179.9001 157.9671,-184.1001"/>
</g>
<!-- src/routes/api.ts -->
<g id="node18" class="node">
<title>src/routes/api.ts</title>
<g id="a_node18"><a xlink:href="https://github.com/RascalTwo/Todo-Backend/blob/main/src/routes/api.ts" xlink:title="api.ts">
<path fill="#ddfeff" stroke="#000000" d="M134,-221C134,-221 92,-221 92,-221 89,-221 86,-218 86,-215 86,-215 86,-209 86,-209 86,-206 89,-203 92,-203 92,-203 134,-203 134,-203 137,-203 140,-206 140,-209 140,-209 140,-215 140,-215 140,-218 137,-221 134,-221"/>
<text text-anchor="middle" x="113" y="-209.8" font-family="Helvetica,sans-Serif" font-size="9.00" fill="#000000">api.ts</text>
</a>
</g>
</g>
<!-- src/index.ts&#45;&gt;src/routes/api.ts -->
<g id="edge12" class="edge">
<title>src/index.ts&#45;&gt;src/routes/api.ts</title>
<path fill="none" stroke="#000000" stroke-width="2" stroke-opacity="0.200000" d="M61.5,-232.836C61.5,-224.0135 61.5,-212 61.5,-212 61.5,-212 79.742,-212 79.742,-212"/>
<polygon fill="#000000" fill-opacity="0.200000" stroke="#000000" stroke-width="2" stroke-opacity="0.200000" points="79.742,-214.1001 85.742,-212 79.7419,-209.9001 79.742,-214.1001"/>
</g>
<!-- src/routes/ws.ts -->
<g id="node19" class="node">
<title>src/routes/ws.ts</title>
<g id="a_node19"><a xlink:href="https://github.com/RascalTwo/Todo-Backend/blob/main/src/routes/ws.ts" xlink:title="ws.ts">
<path fill="#ddfeff" stroke="#000000" d="M134,-251C134,-251 92,-251 92,-251 89,-251 86,-248 86,-245 86,-245 86,-239 86,-239 86,-236 89,-233 92,-233 92,-233 134,-233 134,-233 137,-233 140,-236 140,-239 140,-239 140,-245 140,-245 140,-248 137,-251 134,-251"/>
<text text-anchor="middle" x="113" y="-239.8" font-family="Helvetica,sans-Serif" font-size="9.00" fill="#000000">ws.ts</text>
</a>
</g>
</g>
<!-- src/index.ts&#45;&gt;src/routes/ws.ts -->
<g id="edge13" class="edge">
<title>src/index.ts&#45;&gt;src/routes/ws.ts</title>
<path fill="none" stroke="#000000" stroke-width="2" stroke-opacity="0.200000" d="M70.2643,-242C70.2643,-242 79.695,-242 79.695,-242"/>
<polygon fill="#000000" fill-opacity="0.200000" stroke="#000000" stroke-width="2" stroke-opacity="0.200000" points="79.695,-244.1001 85.695,-242 79.695,-239.9001 79.695,-244.1001"/>
</g>
<!-- src/models/index.ts&#45;&gt;node_modules/sequelize/index.js -->
<g id="edge24" class="edge">
<title>src/models/index.ts&#45;&gt;node_modules/sequelize/index.js</title>
<path fill="none" stroke="#000000" stroke-opacity="0.200000" d="M182.5,-191.3333C182.5,-196 182.5,-200.6667 182.5,-200.6667 182.5,-200.6667 336.3086,-200.6667 336.3086,-200.6667"/>
<polygon fill="#000000" fill-opacity="0.200000" stroke="#000000" stroke-opacity="0.200000" points="336.3086,-202.7668 342.3086,-200.6667 336.3086,-198.5668 336.3086,-202.7668"/>
</g>
<!-- src/models/index.ts&#45;&gt;src/constants.ts -->
<g id="edge22" class="edge">
<title>src/models/index.ts&#45;&gt;src/constants.ts</title>
<path fill="none" stroke="#000000" stroke-width="2" stroke-opacity="0.200000" d="M191.5,-172.7094C191.5,-162.6426 191.5,-148 191.5,-148 191.5,-148 227.8221,-148 227.8221,-148"/>
<polygon fill="#000000" fill-opacity="0.200000" stroke="#000000" stroke-width="2" stroke-opacity="0.200000" points="227.8221,-150.1001 233.8221,-148 227.822,-145.9001 227.8221,-150.1001"/>
</g>
<!-- src/models/index.ts&#45;&gt;src/models/Todo.ts -->
<g id="edge23" class="edge">
<title>src/models/index.ts&#45;&gt;src/models/Todo.ts</title>
<path fill="none" stroke="#000000" stroke-width="2" stroke-opacity="0.200000" d="M218.2572,-182C218.2572,-182 233.2828,-182 233.2828,-182"/>
<polygon fill="#000000" fill-opacity="0.200000" stroke="#000000" stroke-width="2" stroke-opacity="0.200000" points="233.2828,-184.1001 239.2828,-182 233.2827,-179.9001 233.2828,-184.1001"/>
</g>
<!-- src/routes/api.ts&#45;&gt;node_modules/express/index.js -->
<g id="edge26" class="edge">
<title>src/routes/api.ts&#45;&gt;node_modules/express/index.js</title>
<path fill="none" stroke="#000000" stroke-opacity="0.200000" d="M140.002,-216.3333C146.9453,-216.3333 152.5,-216.3333 152.5,-216.3333 152.5,-216.3333 152.5,-383.2 152.5,-383.2 152.5,-383.2 336.4556,-383.2 336.4556,-383.2"/>
<polygon fill="#000000" fill-opacity="0.200000" stroke="#000000" stroke-opacity="0.200000" points="336.4556,-385.3001 342.4556,-383.2 336.4555,-381.1001 336.4556,-385.3001"/>
</g>
<!-- src/routes/api.ts&#45;&gt;src/controlers/Todo.ts -->
<g id="edge25" class="edge">
<title>src/routes/api.ts&#45;&gt;src/controlers/Todo.ts</title>
<path fill="none" stroke="#000000" stroke-width="2" stroke-opacity="0.200000" d="M140.2059,-218.6667C165.8917,-218.6667 200.5,-218.6667 200.5,-218.6667 200.5,-218.6667 200.5,-226.778 200.5,-226.778"/>
<polygon fill="#000000" fill-opacity="0.200000" stroke="#000000" stroke-width="2" stroke-opacity="0.200000" points="198.4001,-226.778 200.5,-232.778 202.6001,-226.7781 198.4001,-226.778"/>
</g>
<!-- src/routes/ws.ts&#45;&gt;node_modules/express/index.js -->
<g id="edge28" class="edge">
<title>src/routes/ws.ts&#45;&gt;node_modules/express/index.js</title>
<path fill="none" stroke="#000000" stroke-opacity="0.200000" d="M113.5,-251.0579C113.5,-282.7581 113.5,-386.8 113.5,-386.8 113.5,-386.8 336.1035,-386.8 336.1035,-386.8"/>
<polygon fill="#000000" fill-opacity="0.200000" stroke="#000000" stroke-opacity="0.200000" points="336.1036,-388.9001 342.1035,-386.8 336.1035,-384.7001 336.1036,-388.9001"/>
</g>
<!-- src/routes/ws.ts&#45;&gt;src/controlers/Todo.ts -->
<g id="edge27" class="edge">
<title>src/routes/ws.ts&#45;&gt;src/controlers/Todo.ts</title>
<path fill="none" stroke="#000000" stroke-width="2" stroke-opacity="0.200000" d="M140.2806,-242C140.2806,-242 157.8665,-242 157.8665,-242"/>
<polygon fill="#000000" fill-opacity="0.200000" stroke="#000000" stroke-width="2" stroke-opacity="0.200000" points="157.8665,-244.1001 163.8665,-242 157.8665,-239.9001 157.8665,-244.1001"/>
</g>
</g>
</svg>
